<svg xmlns="http://www.w3.org/2000/svg" xmlns:xlink="http://www.w3.org/1999/xlink" viewBox="0 0 280.46 85.76"><defs><style>.cls-1{fill:#fff;}.cls-2{fill:#45a9c0;}.cls-3{fill:#ea933c;}.cls-4{fill:#ffc233;}.cls-5{fill:#52c7db;}.cls-6{fill:#a6d72e;}</style><symbol id="Check" data-name="Check" viewBox="0 0 36.98 28.63"><polygon class="cls-1" points="13.9 14.76 7.3 7.58 0 14.88 0 14.88 13.75 28.63 36.98 5.4 31.68 0 13.9 14.76"/></symbol></defs><g id="Layer_2" data-name="Layer 2"><g id="Layer_1-2" data-name="Layer 1"><polygon points="3.45 78.11 8.68 78.11 8.68 76.84 3.45 76.84 3.45 73.64 9.32 73.64 9.32 72.34 1.96 72.34 1.96 82.78 9.53 82.78 9.53 81.48 3.45 81.48 3.45 78.11"/><polygon points="8.38 69.56 6.56 69.56 4.54 71.5 5.88 71.5 8.38 69.56"/><path d="M13.67,76.4a2.91,2.91,0,0,1,2.59-.07,2.4,2.4,0,0,1,.94.86l1.09-.7A3,3,0,0,0,17,75.23a4.11,4.11,0,0,0-1.92-.43,4.47,4.47,0,0,0-2.15.52,3.68,3.68,0,0,0-1.48,1.42,4.3,4.3,0,0,0,0,4.17,3.7,3.7,0,0,0,1.48,1.43,4.36,4.36,0,0,0,2.15.52A4,4,0,0,0,17,82.42a3.13,3.13,0,0,0,1.3-1.25l-1.09-.69a2.48,2.48,0,0,1-.94.86,2.91,2.91,0,0,1-2.59-.07,2.51,2.51,0,0,1-1-1,2.91,2.91,0,0,1-.35-1.47,2.86,2.86,0,0,1,.35-1.47A2.55,2.55,0,0,1,13.67,76.4Z"/><path d="M25.51,75.32a4.54,4.54,0,0,0-4.22,0,3.69,3.69,0,0,0-1.46,1.42,4.28,4.28,0,0,0,0,4.16,3.68,3.68,0,0,0,1.46,1.44,4.54,4.54,0,0,0,4.22,0A3.72,3.72,0,0,0,27,80.91a4.39,4.39,0,0,0,0-4.18A3.74,3.74,0,0,0,25.51,75.32Zm.2,5a2.4,2.4,0,0,1-.94,1,2.73,2.73,0,0,1-1.37.34,2.6,2.6,0,0,1-1.35-.34,2.51,2.51,0,0,1-1-1,2.9,2.9,0,0,1-.36-1.46,2.86,2.86,0,0,1,.36-1.47,2.58,2.58,0,0,1,2.31-1.3,2.73,2.73,0,0,1,1.37.34,2.48,2.48,0,0,1,.94,1,3,3,0,0,1,.34,1.47A3,3,0,0,1,25.71,80.29Z"/><rect x="29.48" y="71.72" width="1.43" height="11.06"/><path d="M38.9,75.31a4,4,0,0,0-2-.51,4.06,4.06,0,0,0-2,.52,3.66,3.66,0,0,0-1.42,1.42,4.2,4.2,0,0,0-.51,2.09,4,4,0,0,0,.53,2.08,3.67,3.67,0,0,0,1.49,1.43,5,5,0,0,0,4,.2,3.44,3.44,0,0,0,1.34-1l-.79-.92a2.7,2.7,0,0,1-1,.71,3.5,3.5,0,0,1-2.78-.1,2.62,2.62,0,0,1-1-1,2.77,2.77,0,0,1-.31-1h6.39a1.8,1.8,0,0,1,0-.22v-.21a4.45,4.45,0,0,0-.49-2.14A3.69,3.69,0,0,0,38.9,75.31Zm-3.36,1A2.56,2.56,0,0,1,36.87,76a2.51,2.51,0,0,1,1.33.34,2.33,2.33,0,0,1,.91.93,2.56,2.56,0,0,1,.27,1h-5a2.76,2.76,0,0,1,.29-1A2.3,2.3,0,0,1,35.54,76.35Z"/><path d="M52.81,77.75a6.55,6.55,0,0,0-1.24-.5c-.45-.13-.9-.25-1.35-.35s-.86-.22-1.23-.35a2.75,2.75,0,0,1-.91-.52,1.17,1.17,0,0,1-.35-.88,1.46,1.46,0,0,1,.26-.84,1.71,1.71,0,0,1,.83-.59,4,4,0,0,1,1.45-.23,5.73,5.73,0,0,1,1.44.2,4.92,4.92,0,0,1,1.42.65l.49-1.19a5.11,5.11,0,0,0-1.55-.69,7.4,7.4,0,0,0-1.8-.23,5.28,5.28,0,0,0-2.26.41,2.91,2.91,0,0,0-1.31,1.08,2.72,2.72,0,0,0-.43,1.49,2.35,2.35,0,0,0,1.25,2.2,6.23,6.23,0,0,0,1.23.52c.46.13.91.25,1.35.35a7.79,7.79,0,0,1,1.23.35,2.65,2.65,0,0,1,.91.52,1.15,1.15,0,0,1,.35.87,1.37,1.37,0,0,1-.27.83,1.75,1.75,0,0,1-.83.57,4.34,4.34,0,0,1-1.48.21,5.48,5.48,0,0,1-1.92-.35,4.62,4.62,0,0,1-1.52-.86L46,81.58a4.64,4.64,0,0,0,1.71,1,7.25,7.25,0,0,0,2.28.36,5.44,5.44,0,0,0,2.28-.41,3,3,0,0,0,1.33-1.08,2.68,2.68,0,0,0,.43-1.47,2.38,2.38,0,0,0-.34-1.34A2.59,2.59,0,0,0,52.81,77.75Z"/><path d="M62,79a3.07,3.07,0,0,1-.3,1.42,2.06,2.06,0,0,1-.85.9,2.68,2.68,0,0,1-1.3.3A2.07,2.07,0,0,1,57.93,81a2.44,2.44,0,0,1-.56-1.74V74.88H55.94v4.54a3.86,3.86,0,0,0,.43,1.93,2.67,2.67,0,0,0,1.19,1.14,4,4,0,0,0,1.78.37,3.45,3.45,0,0,0,1.74-.43,2.62,2.62,0,0,0,.94-.9v1.25h1.36v-7.9H62Z"/><path d="M72.35,75.31a4.09,4.09,0,0,0-2.06-.51,3.69,3.69,0,0,0-1.82.45,3,3,0,0,0-1,.93v-1.3H66.1V85.67h1.43V81.53a3.25,3.25,0,0,0,1,.88,3.63,3.63,0,0,0,1.79.45,4.08,4.08,0,0,0,2.06-.5,3.77,3.77,0,0,0,1.41-1.42,4.54,4.54,0,0,0,0-4.22A3.81,3.81,0,0,0,72.35,75.31Zm.14,5a2.43,2.43,0,0,1-.95,1,2.89,2.89,0,0,1-2.72,0,2.43,2.43,0,0,1-.95-1,3,3,0,0,1-.35-1.46,3,3,0,0,1,.35-1.47,2.5,2.5,0,0,1,.95-1,2.89,2.89,0,0,1,2.72,0,2.5,2.5,0,0,1,.95,1,3,3,0,0,1,.35,1.47A3,3,0,0,1,72.49,80.29Z"/><polygon points="82.21 71.79 80.39 71.79 78.37 73.73 79.71 73.73 82.21 71.79"/><path d="M81.53,75.31a4.26,4.26,0,0,0-4.06,0,3.59,3.59,0,0,0-1.42,1.42,4.2,4.2,0,0,0-.51,2.09,4.07,4.07,0,0,0,.52,2.08,3.73,3.73,0,0,0,1.49,1.43,5.07,5.07,0,0,0,4,.2,3.51,3.51,0,0,0,1.34-1l-.79-.92a2.7,2.7,0,0,1-1,.71,3.27,3.27,0,0,1-1.27.24,3.2,3.2,0,0,1-1.51-.34,2.55,2.55,0,0,1-1-1,2.44,2.44,0,0,1-.31-1h6.38l0-.22v-.21a4.34,4.34,0,0,0-.5-2.14A3.6,3.6,0,0,0,81.53,75.31Zm-3.36,1A2.56,2.56,0,0,1,79.5,76a2.51,2.51,0,0,1,1.33.34,2.24,2.24,0,0,1,.9.93,2.41,2.41,0,0,1,.28,1H77a2.75,2.75,0,0,1,.28-1A2.39,2.39,0,0,1,78.17,76.35Z"/><path d="M86.76,76.27V74.88H85.38v7.9h1.43V78.84a2.72,2.72,0,0,1,.68-2,2.4,2.4,0,0,1,1.81-.69h.16l.17,0V74.8a3.88,3.88,0,0,0-1.91.44A2.39,2.39,0,0,0,86.76,76.27Z"/><path d="M92.1,71.5a1,1,0,0,0-.69.26.92.92,0,0,0-.27.67.9.9,0,0,0,.27.66,1,1,0,0,0,.69.27.93.93,0,0,0,.71-.28,1,1,0,0,0,.26-.68.85.85,0,0,0-.27-.64A1,1,0,0,0,92.1,71.5Z"/><rect x="91.39" y="74.88" width="1.43" height="7.9"/><path d="M100.81,75.31a4.26,4.26,0,0,0-4.06,0,3.59,3.59,0,0,0-1.42,1.42,4.2,4.2,0,0,0-.51,2.09,4,4,0,0,0,.53,2.08,3.64,3.64,0,0,0,1.48,1.43,5.07,5.07,0,0,0,4,.2,3.51,3.51,0,0,0,1.34-1l-.79-.92a2.7,2.7,0,0,1-1,.71,3.27,3.27,0,0,1-1.27.24,3.2,3.2,0,0,1-1.51-.34,2.62,2.62,0,0,1-1-1,2.44,2.44,0,0,1-.31-1h6.38l0-.22v-.21a4.34,4.34,0,0,0-.5-2.14A3.6,3.6,0,0,0,100.81,75.31Zm-3.36,1A2.56,2.56,0,0,1,98.78,76a2.51,2.51,0,0,1,1.33.34,2.24,2.24,0,0,1,.9.93,2.41,2.41,0,0,1,.28,1h-5a2.75,2.75,0,0,1,.28-1A2.39,2.39,0,0,1,97.45,76.35Z"/><path d="M110.6,79a3.07,3.07,0,0,1-.3,1.42,2.06,2.06,0,0,1-.85.9,2.68,2.68,0,0,1-1.3.3,2.07,2.07,0,0,1-1.57-.58,2.44,2.44,0,0,1-.56-1.74V74.88h-1.43v4.54a3.86,3.86,0,0,0,.43,1.93,2.67,2.67,0,0,0,1.19,1.14,4,4,0,0,0,1.78.37,3.51,3.51,0,0,0,1.74-.43,2.62,2.62,0,0,0,.94-.9v1.25H112v-7.9H110.6Z"/><path d="M116.12,76.27V74.88h-1.37v7.9h1.43V78.84a2.76,2.76,0,0,1,.67-2,2.43,2.43,0,0,1,1.82-.69h.16l.17,0V74.8a3.85,3.85,0,0,0-1.91.44A2.41,2.41,0,0,0,116.12,76.27Z"/><path d="M125.94,75.31a3.94,3.94,0,0,0-2-.51,4.07,4.07,0,0,0-2,.52,3.63,3.63,0,0,0-1.41,1.42,4.4,4.4,0,0,0,0,4.17A3.67,3.67,0,0,0,122,82.34a4.56,4.56,0,0,0,2.23.52,4.63,4.63,0,0,0,1.78-.32,3.4,3.4,0,0,0,1.33-1l-.79-.92a2.59,2.59,0,0,1-1,.71,3.28,3.28,0,0,1-1.28.24,3.19,3.19,0,0,1-1.5-.34,2.49,2.49,0,0,1-1-1,2.61,2.61,0,0,1-.32-1h6.39a1.5,1.5,0,0,0,0-.22,1.62,1.62,0,0,0,0-.21,4.45,4.45,0,0,0-.5-2.14A3.56,3.56,0,0,0,125.94,75.31Zm-3.35,1a2.77,2.77,0,0,1,2.66,0,2.37,2.37,0,0,1,.9.93,2.75,2.75,0,0,1,.28,1h-5a2.75,2.75,0,0,1,.28-1A2.33,2.33,0,0,1,122.59,76.35Z"/><path d="M141.36,73a6.32,6.32,0,0,0-3-.65H134V82.78h4.39a6.32,6.32,0,0,0,3-.66,4.87,4.87,0,0,0,2-1.83,5.6,5.6,0,0,0,0-5.46A4.87,4.87,0,0,0,141.36,73Zm.67,6.61A3.54,3.54,0,0,1,140.57,81a4.79,4.79,0,0,1-2.25.49h-2.81V73.64h2.81a4.91,4.91,0,0,1,2.25.49A3.58,3.58,0,0,1,142,75.5a4.25,4.25,0,0,1,0,4.11Z"/><path d="M151.38,75.31a4.26,4.26,0,0,0-4.06,0,3.59,3.59,0,0,0-1.42,1.42,4.2,4.2,0,0,0-.51,2.09,4,4,0,0,0,.53,2.08,3.61,3.61,0,0,0,1.49,1.43,5,5,0,0,0,4,.2,3.51,3.51,0,0,0,1.34-1l-.79-.92a2.7,2.7,0,0,1-1,.71,3.27,3.27,0,0,1-1.27.24,3.2,3.2,0,0,1-1.51-.34,2.62,2.62,0,0,1-1-1,2.44,2.44,0,0,1-.31-1h6.38l0-.22v-.21a4.34,4.34,0,0,0-.5-2.14A3.6,3.6,0,0,0,151.38,75.31Zm-3.36,1a2.56,2.56,0,0,1,1.33-.34,2.51,2.51,0,0,1,1.33.34,2.24,2.24,0,0,1,.9.93,2.41,2.41,0,0,1,.28,1h-5a2.75,2.75,0,0,1,.28-1A2.39,2.39,0,0,1,148,76.35Z"/><polygon points="166.57 72.34 157.95 72.34 157.95 73.64 161.52 73.64 161.52 82.78 163 82.78 163 73.64 166.57 73.64 166.57 72.34"/><path d="M172.43,75.31a4,4,0,0,0-2-.51,4.06,4.06,0,0,0-2,.52A3.72,3.72,0,0,0,167,76.74a4.2,4.2,0,0,0-.51,2.09,4.07,4.07,0,0,0,.53,2.08,3.67,3.67,0,0,0,1.49,1.43,4.56,4.56,0,0,0,2.23.52,4.63,4.63,0,0,0,1.78-.32,3.48,3.48,0,0,0,1.33-1l-.79-.92a2.66,2.66,0,0,1-1,.71,3.32,3.32,0,0,1-1.28.24,3.13,3.13,0,0,1-1.5-.34,2.49,2.49,0,0,1-1-1,2.61,2.61,0,0,1-.32-1h6.39c0-.07,0-.14,0-.22s0-.15,0-.21a4.45,4.45,0,0,0-.5-2.14A3.56,3.56,0,0,0,172.43,75.31Zm-3.35,1A2.52,2.52,0,0,1,170.4,76a2.57,2.57,0,0,1,1.34.34,2.37,2.37,0,0,1,.9.93,2.75,2.75,0,0,1,.28,1h-5a3,3,0,0,1,.29-1A2.33,2.33,0,0,1,169.08,76.35Z"/><path d="M178.33,76.4a2.91,2.91,0,0,1,2.59-.07,2.4,2.4,0,0,1,.94.86l1.09-.7a3,3,0,0,0-1.3-1.26,4.14,4.14,0,0,0-1.92-.43,4.47,4.47,0,0,0-2.15.52,3.68,3.68,0,0,0-1.48,1.42,4.3,4.3,0,0,0,0,4.17,3.7,3.7,0,0,0,1.48,1.43,4.36,4.36,0,0,0,2.15.52,4,4,0,0,0,1.92-.44,3.13,3.13,0,0,0,1.3-1.25l-1.09-.69a2.48,2.48,0,0,1-.94.86,2.91,2.91,0,0,1-2.59-.07,2.51,2.51,0,0,1-1-1,2.91,2.91,0,0,1-.36-1.47,2.86,2.86,0,0,1,.36-1.47A2.55,2.55,0,0,1,178.33,76.4Z"/><path d="M190.62,75.18a3.74,3.74,0,0,0-1.71-.38,3.9,3.9,0,0,0-1.88.44,2.74,2.74,0,0,0-.91.81V71.72h-1.43V82.78h1.43V78.71a3.14,3.14,0,0,1,.31-1.45,2,2,0,0,1,.87-.88,2.81,2.81,0,0,1,1.33-.3,2.07,2.07,0,0,1,1.57.59,2.39,2.39,0,0,1,.56,1.72v4.39h1.43V78.23a4,4,0,0,0-.42-1.92A2.61,2.61,0,0,0,190.62,75.18Z"/><path d="M200.76,75.18a3.7,3.7,0,0,0-1.7-.38,3.9,3.9,0,0,0-1.88.44,2.69,2.69,0,0,0-1,.89V74.88h-1.37v7.9h1.43V78.71a3,3,0,0,1,.31-1.45,2,2,0,0,1,.87-.88,2.77,2.77,0,0,1,1.32-.3,2.1,2.1,0,0,1,1.58.59,2.39,2.39,0,0,1,.55,1.72v4.39h1.43V78.23a4,4,0,0,0-.41-1.92A2.63,2.63,0,0,0,200.76,75.18Z"/><path d="M210.48,75.32a4.56,4.56,0,0,0-4.23,0,3.83,3.83,0,0,0-1.46,1.42,4.35,4.35,0,0,0,0,4.16,3.81,3.81,0,0,0,1.46,1.44,4.56,4.56,0,0,0,4.23,0,3.78,3.78,0,0,0,1.46-1.43,4.39,4.39,0,0,0,0-4.18A3.8,3.8,0,0,0,210.48,75.32Zm.2,5a2.43,2.43,0,0,1-1,1,2.89,2.89,0,0,1-2.72,0,2.56,2.56,0,0,1-.95-1,2.9,2.9,0,0,1-.36-1.46,2.86,2.86,0,0,1,.36-1.47,2.55,2.55,0,0,1,2.31-1.3,2.69,2.69,0,0,1,1.36.34,2.5,2.5,0,0,1,1,1,3,3,0,0,1,.34,1.47A3,3,0,0,1,210.68,80.29Z"/><rect x="214.45" y="71.72" width="1.43" height="11.06"/><path d="M224.1,75.32A4.37,4.37,0,0,0,222,74.8a4.32,4.32,0,0,0-2.12.52,3.83,3.83,0,0,0-1.46,1.42,4.28,4.28,0,0,0,0,4.16,3.81,3.81,0,0,0,1.46,1.44,4.56,4.56,0,0,0,4.23,0,3.78,3.78,0,0,0,1.46-1.43,4.46,4.46,0,0,0,0-4.18A3.8,3.8,0,0,0,224.1,75.32Zm.2,5a2.43,2.43,0,0,1-1,1,2.89,2.89,0,0,1-2.72,0,2.49,2.49,0,0,1-.95-1,2.9,2.9,0,0,1-.36-1.46,2.86,2.86,0,0,1,.36-1.47,2.57,2.57,0,0,1,.95-1,2.89,2.89,0,0,1,2.72,0,2.5,2.5,0,0,1,1,1,3.07,3.07,0,0,1,.34,1.47A3.11,3.11,0,0,1,224.3,80.29Z"/><path d="M234.26,76.14a3.08,3.08,0,0,0-1.07-.93,4.15,4.15,0,0,0-1.85-.41,4.27,4.27,0,0,0-2,.48,3.6,3.6,0,0,0-1.43,1.33,3.7,3.7,0,0,0-.53,2,3.66,3.66,0,0,0,.53,2A3.58,3.58,0,0,0,229.3,82a4.16,4.16,0,0,0,2,.49,3.91,3.91,0,0,0,1.85-.43,3.12,3.12,0,0,0,1-.84v.67a2.72,2.72,0,0,1-.66,2,2.82,2.82,0,0,1-2.05.65,5.29,5.29,0,0,1-1.69-.27,4.38,4.38,0,0,1-1.35-.75l-.69,1.1a4.29,4.29,0,0,0,1.66.87,7.53,7.53,0,0,0,2.11.31,4.3,4.3,0,0,0,3.06-1,4.05,4.05,0,0,0,1-3.07V74.88h-1.36ZM233.87,80a2.41,2.41,0,0,1-1,.91,3.16,3.16,0,0,1-2.81,0,2.43,2.43,0,0,1-1-.91,2.6,2.6,0,0,1-.35-1.34,2.55,2.55,0,0,1,.35-1.34,2.34,2.34,0,0,1,1-.9,3.24,3.24,0,0,1,2.81,0,2.32,2.32,0,0,1,1,.9,2.55,2.55,0,0,1,.35,1.34A2.6,2.6,0,0,1,233.87,80Z"/><rect x="238.35" y="74.88" width="1.43" height="7.9"/><path d="M239.06,71.5a1,1,0,0,0-.69.26.93.93,0,0,0-.28.67.91.91,0,0,0,.28.66.93.93,0,0,0,.69.27.91.91,0,0,0,.7-.28.93.93,0,0,0,.27-.68.85.85,0,0,0-.27-.64A1,1,0,0,0,239.06,71.5Z"/><path d="M247.76,75.31a3.94,3.94,0,0,0-2-.51,4.07,4.07,0,0,0-2,.52,3.63,3.63,0,0,0-1.41,1.42,4.21,4.21,0,0,0-.52,2.09,4.07,4.07,0,0,0,.53,2.08,3.73,3.73,0,0,0,1.49,1.43,5.07,5.07,0,0,0,4,.2,3.4,3.4,0,0,0,1.33-1l-.78-.92a2.7,2.7,0,0,1-1,.71,3.27,3.27,0,0,1-1.27.24,3.2,3.2,0,0,1-1.51-.34,2.49,2.49,0,0,1-1-1,2.61,2.61,0,0,1-.32-1h6.39a1.5,1.5,0,0,0,0-.22,1.62,1.62,0,0,0,0-.21,4.34,4.34,0,0,0-.5-2.14A3.56,3.56,0,0,0,247.76,75.31Zm-3.35,1a2.77,2.77,0,0,1,2.66,0,2.37,2.37,0,0,1,.9.93,2.57,2.57,0,0,1,.28,1h-5a2.75,2.75,0,0,1,.28-1A2.33,2.33,0,0,1,244.41,76.35Z"/><path d="M260.32,78.83a4.21,4.21,0,0,0-1-.35,10.1,10.1,0,0,0-1.07-.21,9.91,9.91,0,0,1-1-.2,1.88,1.88,0,0,1-.71-.34.72.72,0,0,1-.28-.62.93.93,0,0,1,.46-.78,2.62,2.62,0,0,1,1.4-.3,5.18,5.18,0,0,1,1.17.13,3.31,3.31,0,0,1,1.11.49l.61-1.13a3.72,3.72,0,0,0-1.3-.53,7.09,7.09,0,0,0-1.57-.19,4.82,4.82,0,0,0-1.75.29,2.6,2.6,0,0,0-1.14.83,2,2,0,0,0-.4,1.25,2.08,2.08,0,0,0,.26,1.1,1.94,1.94,0,0,0,.72.64,5,5,0,0,0,1,.36c.36.08.72.15,1.08.2s.68.12,1,.19a1.86,1.86,0,0,1,.71.31.71.71,0,0,1,.27.59.88.88,0,0,1-.44.78,2.77,2.77,0,0,1-1.44.29,4.93,4.93,0,0,1-1.52-.24,4.84,4.84,0,0,1-1.25-.58l-.6,1.13a4.35,4.35,0,0,0,1.4.66,6.36,6.36,0,0,0,1.87.26,4.91,4.91,0,0,0,1.81-.29,2.65,2.65,0,0,0,1.18-.81,1.91,1.91,0,0,0,.42-1.23,1.74,1.74,0,0,0-1-1.7Z"/><path d="M266,74.8a6.25,6.25,0,0,0-1.79.26,4.35,4.35,0,0,0-1.47.76l.59,1.07a3.65,3.65,0,0,1,1.14-.62,4.24,4.24,0,0,1,1.37-.23,2.23,2.23,0,0,1,1.58.5,1.81,1.81,0,0,1,.53,1.41v.28h-2.26a4.58,4.58,0,0,0-1.87.31,2.12,2.12,0,0,0-1,.84,2.29,2.29,0,0,0-.31,1.16,2.07,2.07,0,0,0,.36,1.2,2.42,2.42,0,0,0,1,.83,3.73,3.73,0,0,0,1.55.29,3.53,3.53,0,0,0,1.8-.41,2.33,2.33,0,0,0,.79-.77v1.1h1.35V78a3.08,3.08,0,0,0-.88-2.42A3.64,3.64,0,0,0,266,74.8Zm1.08,6.6a2.69,2.69,0,0,1-1.41.36,2,2,0,0,1-1.28-.35,1.09,1.09,0,0,1-.46-.93,1.14,1.14,0,0,1,.37-.86,2.13,2.13,0,0,1,1.45-.36h2.2v1.1A2,2,0,0,1,267.05,81.4Z"/><path d="M278,73.36a.91.91,0,0,0,.7-.28.93.93,0,0,0,.27-.68.83.83,0,0,0-.28-.64.93.93,0,0,0-.69-.26,1,1,0,0,0-.69.26.89.89,0,0,0-.28.67.87.87,0,0,0,.28.66A.93.93,0,0,0,278,73.36Z"/><rect x="277.27" y="74.88" width="1.43" height="7.9"/><path d="M274.82,71.63a2.59,2.59,0,0,0-1.93.69,2.55,2.55,0,0,0-.68,1.86v.7h-1.34v1.18h1.34v6.72h1.43V76.06h2.27V74.88h-2.29v-.69a1.45,1.45,0,0,1,.32-1,1.23,1.23,0,0,1,1-.35,2,2,0,0,1,.59.09,1.8,1.8,0,0,1,.51.28l.43-1.09a2,2,0,0,0-.72-.35A3.68,3.68,0,0,0,274.82,71.63Z"/><path class="cls-2" d="M178.9,33a11.13,11.13,0,0,1-1.06,5.12A7.23,7.23,0,0,1,175,41.22a8.11,8.11,0,0,1-4.09,1,6.6,6.6,0,0,1-5.16-2q-1.81-2-1.82-6.36V15.94h-10V35.39a18.27,18.27,0,0,0,1.85,8.71A11.82,11.82,0,0,0,161,49.22a16.89,16.89,0,0,0,7.68,1.66A15,15,0,0,0,176,49.06a11.85,11.85,0,0,0,3.39-2.82v4.13h9.47V15.94H178.9Z"/><rect class="cls-2" x="198.09" y="15.94" width="9.98" height="34.43"/><path class="cls-2" d="M203.09,0a6.41,6.41,0,0,0-4.55,1.6,5.21,5.21,0,0,0-1.73,4,5.21,5.21,0,0,0,1.73,4,6.46,6.46,0,0,0,4.55,1.6,6.34,6.34,0,0,0,4.54-1.64,5.42,5.42,0,0,0,1.73-4.12A4.89,4.89,0,0,0,207.6,1.5,6.73,6.73,0,0,0,203.09,0Z"/><polygon class="cls-2" points="245.13 22.02 245.13 15.94 215.44 15.94 215.44 23.62 232.53 23.62 215.06 44.29 215.06 50.37 245.71 50.37 245.71 42.69 227.61 42.69 245.13 22.02"/><polygon class="cls-2" points="262.37 42.69 279.89 22.02 279.89 15.94 250.19 15.94 250.19 23.62 267.28 23.62 249.81 44.29 249.81 50.37 280.46 50.37 280.46 42.69 262.37 42.69"/><polygon class="cls-3" points="27.49 33.89 10.71 6.08 2.14 6.08 2.14 50.88 11.8 50.88 11.8 24.46 24.98 46.08 29.59 46.08 42.79 24.16 42.91 50.88 52.57 50.88 52.57 6.08 43.93 6.08 27.49 33.89"/><path class="cls-3" d="M77.42,39.81,67.74,16.45H57.5L72.34,51.16l-.12.3a8.63,8.63,0,0,1-2.28,3.29,5.14,5.14,0,0,1-3.29,1,8.48,8.48,0,0,1-3-.57A8,8,0,0,1,61,53.5L57.3,60.67A12.63,12.63,0,0,0,61.66,63a17.32,17.32,0,0,0,5.24.83,16.4,16.4,0,0,0,5.73-1,12.16,12.16,0,0,0,4.74-3.3A21.09,21.09,0,0,0,81.18,53L96.73,16.45H87.19Z"/><polygon class="cls-4" points="25.35 33.91 8.58 6.09 0 6.09 0 50.89 9.66 50.89 9.66 24.47 22.85 46.09 27.46 46.09 40.65 24.17 40.77 50.89 50.43 50.89 50.43 6.09 41.79 6.09 25.35 33.91"/><path class="cls-4" d="M75.29,39.82,65.6,16.46H55.36L70.2,51.18l-.12.29a8.54,8.54,0,0,1-2.27,3.29,5.09,5.09,0,0,1-3.3,1,8.54,8.54,0,0,1-3-.58,8.07,8.07,0,0,1-2.66-1.66l-3.64,7.16A12.32,12.32,0,0,0,59.52,63a17.43,17.43,0,0,0,5.25.83,16.4,16.4,0,0,0,5.73-1,12.2,12.2,0,0,0,4.73-3.3A21,21,0,0,0,79,53L94.59,16.46H85.06Z"/><path d="M135.36,53.58a7,7,0,0,1-2.91-.61,10.19,10.19,0,0,1-2.85-2c-.19-.18-.38-.39-.58-.59.42-.13.85-.25,1.25-.4a23.33,23.33,0,0,0,7.78-4.84,21.88,21.88,0,0,0,5.15-7.39A23.17,23.17,0,0,0,145,28.49a23.11,23.11,0,0,0-1.82-9.28,22.06,22.06,0,0,0-5.15-7.36A23.3,23.3,0,0,0,130.27,7a27.18,27.18,0,0,0-9.76-1.7,26.8,26.8,0,0,0-9.76,1.73A23.68,23.68,0,0,0,103,11.92a22.13,22.13,0,0,0-5.16,7.32A23.06,23.06,0,0,0,96,28.49a23.13,23.13,0,0,0,1.82,9.22A22.09,22.09,0,0,0,103,45.07a23.59,23.59,0,0,0,7.8,4.86,25.47,25.47,0,0,0,6.09,1.48c1.45,1.49,2.8,2.78,4,3.87a27.45,27.45,0,0,0,4.7,3.42,19.49,19.49,0,0,0,4.61,1.89,19.82,19.82,0,0,0,5,.61,14.89,14.89,0,0,0,12.09-5.51l-4.6-5.5A9.81,9.81,0,0,1,135.36,53.58ZM110.5,38.86a13.63,13.63,0,0,1-3-4.58,15.61,15.61,0,0,1-1-5.79,15.54,15.54,0,0,1,1-5.82,13.65,13.65,0,0,1,3-4.54,13,13,0,0,1,4.44-3,14.39,14.39,0,0,1,5.57-1.06,14.13,14.13,0,0,1,5.54,1.06,13.55,13.55,0,0,1,4.45,3,13.25,13.25,0,0,1,3,4.54,15.35,15.35,0,0,1,1.06,5.82,15.41,15.41,0,0,1-1.06,5.79,13.23,13.23,0,0,1-3,4.58,13.86,13.86,0,0,1-4.45,3,14.31,14.31,0,0,1-5.54,1,14.57,14.57,0,0,1-5.57-1A13.3,13.3,0,0,1,110.5,38.86Z"/><path class="cls-5" d="M176.9,33.55a11.16,11.16,0,0,1-1.06,5.12A7.2,7.2,0,0,1,173,41.74a8.11,8.11,0,0,1-4.09,1,6.62,6.62,0,0,1-5.16-2q-1.81-2-1.82-6.37V16.46h-10V35.92a18.2,18.2,0,0,0,1.85,8.7A11.77,11.77,0,0,0,159,49.74a16.89,16.89,0,0,0,7.68,1.66A14.88,14.88,0,0,0,174,49.58a11.69,11.69,0,0,0,3.39-2.82v4.13h9.47V16.46H176.9Z"/><rect class="cls-5" x="196.09" y="16.46" width="9.98" height="34.43"/><path class="cls-5" d="M201.09.52a6.42,6.42,0,0,0-4.55,1.61,5.17,5.17,0,0,0-1.73,4,5.21,5.21,0,0,0,1.73,4,6.41,6.41,0,0,0,4.55,1.6A6.34,6.34,0,0,0,205.63,10a5.46,5.46,0,0,0,1.73-4.13A4.86,4.86,0,0,0,205.6,2,6.73,6.73,0,0,0,201.09.52Z"/><polygon class="cls-5" points="243.13 22.54 243.13 16.46 213.44 16.46 213.44 24.14 230.53 24.14 213.06 44.81 213.06 50.89 243.71 50.89 243.71 43.21 225.61 43.21 243.13 22.54"/><polygon class="cls-5" points="260.37 43.21 277.89 22.54 277.89 16.46 248.19 16.46 248.19 24.14 265.28 24.14 247.81 44.81 247.81 50.89 278.46 50.89 278.46 43.21 260.37 43.21"/><circle class="cls-6" cx="120.51" cy="27.48" r="15.63"/><use width="36.98" height="28.63" transform="translate(109.91 19.27) scale(0.57)" xlink:href="#Check"/></g></g></svg>